<?xml version="1.0" encoding="UTF-8" standalone="no"?>
<!-- Created with Inkscape (http://www.inkscape.org/) -->

<svg
   width="88.954834mm"
   height="88.954834mm"
   viewBox="0 0 88.954834 88.954834"
   version="1.1"
   id="svg5"
   xml:space="preserve"
   inkscape:version="1.2.2 (732a01da63, 2022-12-09)"
   sodipodi:docname="icon2.svg"
   inkscape:export-filename="icon2.png"
   inkscape:export-xdpi="96"
   inkscape:export-ydpi="96"
   xmlns:inkscape="http://www.inkscape.org/namespaces/inkscape"
   xmlns:sodipodi="http://sodipodi.sourceforge.net/DTD/sodipodi-0.dtd"
   xmlns:xlink="http://www.w3.org/1999/xlink"
   xmlns="http://www.w3.org/2000/svg"
   xmlns:svg="http://www.w3.org/2000/svg"><sodipodi:namedview
     id="namedview7"
     pagecolor="#ffffff"
     bordercolor="#000000"
     borderopacity="0.25"
     inkscape:showpageshadow="2"
     inkscape:pageopacity="0.0"
     inkscape:pagecheckerboard="0"
     inkscape:deskcolor="#d1d1d1"
     inkscape:document-units="mm"
     showgrid="false"
     inkscape:zoom="0.74564394"
     inkscape:cx="480.12192"
     inkscape:cy="296.38811"
     inkscape:window-width="1920"
     inkscape:window-height="1017"
     inkscape:window-x="1912"
     inkscape:window-y="-8"
     inkscape:window-maximized="1"
     inkscape:current-layer="layer1" /><defs
     id="defs2"><marker
       style="overflow:visible"
       id="Arrow1L"
       refX="0"
       refY="0"
       orient="auto-start-reverse"
       inkscape:stockid="Arrow1L"
       markerWidth="8.75"
       markerHeight="5"
       viewBox="0 0 8.75 5"
       inkscape:isstock="true"
       inkscape:collect="always"
       preserveAspectRatio="xMidYMid"><path
         style="fill:context-stroke;fill-rule:evenodd;stroke:none"
         d="M 0,0 5,-5 -12.5,0 5,5 Z"
         id="arrow1L"
         transform="scale(-0.5)" /></marker><linearGradient
       inkscape:collect="always"
       id="linearGradient4246"><stop
         style="stop-color:#000000;stop-opacity:1;"
         offset="0"
         id="stop4242" /><stop
         style="stop-color:#000000;stop-opacity:0;"
         offset="1"
         id="stop4244" /></linearGradient><rect
       x="80.467361"
       y="193.12167"
       width="189.0983"
       height="111.31318"
       id="rect1006" /><radialGradient
       inkscape:collect="always"
       xlink:href="#linearGradient4246"
       id="radialGradient4248"
       cx="74.768562"
       cy="60.909672"
       fx="74.768562"
       fy="60.909672"
       r="24.941114"
       gradientTransform="matrix(0.81273165,0,0,0.8365147,-25.030473,37.417096)"
       gradientUnits="userSpaceOnUse" /><marker
       style="overflow:visible"
       id="Arrow1L-9"
       refX="0"
       refY="0"
       orient="auto-start-reverse"
       inkscape:stockid="Arrow1L"
       markerWidth="8.75"
       markerHeight="5"
       viewBox="0 0 8.75 5"
       inkscape:isstock="true"
       inkscape:collect="always"
       preserveAspectRatio="xMidYMid"><path
         style="fill:context-stroke;fill-rule:evenodd;stroke:none"
         d="M 0,0 5,-5 -12.5,0 5,5 Z"
         id="arrow1L-4"
         transform="scale(-0.5)" /></marker></defs><g
     inkscape:label="Layer 1"
     inkscape:groupmode="layer"
     id="layer1"
     transform="translate(-15.312903,-19.570965)"><rect
       style="fill:#ffb4fb;stroke:#000000;stroke-width:0.600001;fill-opacity:0.47535211"
       id="rect788"
       width="88.354836"
       height="88.354836"
       x="15.612904"
       y="19.870966" /><text
       xml:space="preserve"
       style="font-style:normal;font-variant:normal;font-weight:normal;font-stretch:normal;font-size:21.7587px;font-family:'Century Gothic';-inkscape-font-specification:'Century Gothic';fill:none;stroke:#000000;stroke-width:2.31294"
       x="18.583189"
       y="41.873425"
       id="text844"><tspan
         sodipodi:role="line"
         id="tspan842"
         style="font-style:normal;font-variant:normal;font-weight:normal;font-stretch:normal;font-family:'Century Gothic';-inkscape-font-specification:'Century Gothic';stroke-width:2.31292"
         x="18.583189"
         y="41.873425">strobo</tspan></text><text
       xml:space="preserve"
       transform="matrix(1.9531247,0,0,1.9531247,-105.26561,-310.64088)"
       id="text1004"
       style="font-style:normal;font-variant:normal;font-weight:normal;font-stretch:normal;font-size:21.3333px;font-family:'Century Gothic';-inkscape-font-specification:'Century Gothic';white-space:pre;shape-inside:url(#rect1006);display:inline;fill:none;stroke:#000000;stroke-width:2.26772"><tspan
         x="80.466797"
         y="212.48906"
         id="tspan5642">PY</tspan></text><ellipse
       style="fill:url(#radialGradient4248);fill-opacity:1;stroke:none;stroke-width:0.501455;stroke-dasharray:none"
       id="path4217"
       cx="35.736305"
       cy="88.368935"
       rx="20.01968"
       ry="20.612856" /><path
       style="fill:none;fill-opacity:1;stroke:#2832c2;stroke-width:0.709007;stroke-dasharray:none;stroke-opacity:1;marker-end:url(#Arrow1L)"
       d="m 53.64397,47.167284 -1.941623,3.474738 c -0.533401,0.798007 -1.756982,0.682932 -2.986286,0.42927 -2.243415,-0.546625 -1.939206,-0.409008 -0.07717,0.825825 l 6.814187,4.518932 c 2.985778,1.930023 2.724119,1.763633 -0.398014,0.499507 L 44.820957,52.771845 c -3.557944,-1.500003 -3.210224,-1.342887 -0.282489,0.767576 l 11.943299,8.609364 c 2.285351,1.610217 2.274086,1.552265 -0.330012,0.637263 L 36.344837,55.826298 C 33.984401,54.977525 33.99725,54.94955 36.148211,56.239 l 19.646972,11.439589 c 4.175094,2.300973 4.374327,2.821528 -0.228408,1.060716 l -20.50771,-7.548154 c -3.917319,-1.518104 -4.437083,-1.840622 -0.749292,0.382086 l 16.267673,9.988158 c 3.817059,2.248609 3.280559,1.961022 -0.454901,0.351954 L 33.913826,64.931382 c -3.575759,-1.578417 -3.210725,-1.407648 -0.07685,0.492264 l 12.541888,7.60352 c 3.128901,1.834244 2.513673,1.52818 -0.478989,0.35703 l -9.77599,-3.825708 c -2.974073,-1.193225 -2.906051,-1.200512 -0.274139,0.543221 l 7.532348,4.990696 c 1.756843,1.121619 1.642792,1.036652 -0.271917,0.591438 l -2.399394,-0.557894 c -1.299941,-0.336038 -0.980418,-0.29883 -1.46554,0.653258 l -0.886409,1.739646"
       id="path4304"
       sodipodi:nodetypes="ccccccccccccccccccccccccccccc"
       inkscape:transform-center-x="-0.35303605"
       inkscape:transform-center-y="-6.8554285" /><path
       style="fill:none;fill-opacity:1;stroke:#c12828;stroke-width:0.709007;stroke-dasharray:none;stroke-opacity:1;marker-end:url(#Arrow1L-9)"
       d="m 95.153501,47.713734 -3.457339,1.972441 c -0.868924,0.407801 -1.857207,-0.322739 -2.778808,-1.174904 -1.638635,-1.626832 -1.449232,-1.351864 -0.492636,0.667271 l 3.500695,7.389115 c 1.55975,3.194846 1.421643,2.917218 -0.598815,0.222133 l -6.622894,-8.834281 c -2.271795,-3.122166 -2.055205,-2.808027 -0.638357,0.511345 l 5.779832,13.540941 c 1.125178,2.55922 1.145467,2.503778 -0.61174,0.375214 l -13.36531,-16.19014 c -1.582773,-1.945995 -1.557321,-1.963312 -0.381534,0.251826 l 10.914423,19.943497 c 2.386528,4.126787 2.288249,4.675434 -0.743461,0.790286 L 71.996098,50.122531 c -2.570169,-3.323289 -2.848644,-3.867923 -0.838957,-0.05984 l 8.770511,16.955192 c 2.106996,3.897018 1.796151,3.373649 -0.571312,0.0664 L 69.083553,52.733657 c -2.246546,-3.198513 -2.022183,-2.86374 -0.320069,0.381818 l 6.811927,12.988845 c 1.731774,3.186759 1.363059,2.606907 -0.594558,0.05831 l -6.394877,-8.325359 c -1.930298,-2.557898 -1.86829,-2.529003 -0.515323,0.323549 l 3.871962,8.164019 c 0.925,1.867861 0.871229,1.736196 -0.538326,0.365983 l -1.766376,-1.717046 c -0.939536,-0.959187 -0.685155,-0.762287 -1.592326,-0.197614 l -1.657574,1.031766"
       id="path4304-5"
       sodipodi:nodetypes="ccccccccccccccccccccccccccccc" /></g></svg>
